<svg width="268" height="59" viewBox="0 0 268 59" fill="none" xmlns="http://www.w3.org/2000/svg">
<path d="M264.791 33.7346C236.13 20.6233 182.891 34.3515 129.816 39.9121C93.8538 43.6811 83.6876 4.95566 65.8481 32.6064C65.2862 33.4768 64.5256 32.7881 65.0115 32.0275C82.8932 3.91622 94.1115 42.0543 130.057 38.8515C185.405 33.9205 231.668 18.1895 266.105 31.7318C268.505 32.6782 266.815 34.6599 264.791 33.7346Z" fill="white"/>
<path d="M6.56363 27.2613C6.38194 28.6473 6.2256 29.8726 6.09039 30.929C5.96363 31.9895 5.81996 33.0585 5.65095 34.1402C7.55236 29.298 9.49603 25.5459 11.4819 22.8839C13.4763 20.2261 15.3355 18.5191 17.0594 17.7627C18.7918 16.9979 20.2031 17.0487 21.2848 17.9149C22.5439 18.9078 23.3552 20.3275 23.7186 22.174C24.0904 24.012 24.1665 26.0571 23.9552 28.3092C23.7397 30.5529 23.389 32.8473 22.9073 35.1881C22.4341 37.5205 21.9608 39.7262 21.4876 41.7966C21.0144 43.8712 20.6975 45.6332 20.5411 47.0867C20.3932 48.5403 20.5453 49.5121 20.9975 50.0107C21.4453 50.5051 22.3665 50.3403 23.7524 49.5205C25.1806 48.6501 26.6848 47.4163 28.2651 45.8191C29.8411 44.2219 31.3623 42.5149 32.8285 40.698C34.3031 38.8853 35.6426 37.1783 36.851 35.5769C38.0679 33.967 39.0228 32.7121 39.7243 31.8078C39.8468 31.6726 40.0623 31.605 40.3665 31.605C40.6707 31.605 40.8228 31.698 40.8228 31.8754C39.9186 33.0374 38.8623 34.4191 37.6454 36.0163C36.4285 37.6177 35.1144 39.274 33.7073 40.9853C32.3087 42.7008 30.8594 44.3318 29.3637 45.8867C27.8763 47.4417 26.3932 48.76 24.9186 49.8417C23.8031 50.6614 22.9284 51.1177 22.2989 51.2107C21.6651 51.2994 20.9172 51.1262 20.051 50.6867C19.1932 50.2558 18.6313 49.3896 18.3608 48.0839C18.0989 46.791 18.027 45.236 18.1411 43.4191C18.251 41.6064 18.4791 39.6501 18.8172 37.5543C19.1636 35.4501 19.5439 33.3585 19.9496 31.2839C20.3637 29.2135 20.7017 27.2909 20.9637 25.5205C21.2214 23.7416 21.3524 22.2501 21.3524 21.0416C21.3524 19.8247 21.1158 19.043 20.6425 18.6923C19.5144 17.8726 17.9975 18.143 16.096 19.5036C14.1904 20.8684 12.2087 23.3022 10.1467 26.805C8.09321 30.3121 6.22982 34.8966 4.55236 40.5628L3.31855 47.1205C3.01432 48.067 2.57911 48.6079 2.01714 48.7431C1.45517 48.8783 0.969251 48.7473 0.563616 48.3543C0.149531 47.9572 -0.0363855 47.5008 0.00586867 46.9853C0.221362 45.3417 0.386152 44.036 0.49601 43.0642C0.597419 42.0966 0.694603 41.2346 0.783335 40.4783C0.876292 39.7135 0.977701 38.8895 1.08756 38.0107C1.18897 37.1233 1.33686 35.974 1.527 34.5628C1.72136 33.1557 2.00869 31.2839 2.40587 28.9515C2.61714 28.0853 3.08193 27.3712 3.79179 26.805C4.5101 26.243 5.16926 25.9599 5.76926 25.9599C6.37771 25.9599 6.63968 26.3951 6.56363 27.2613Z" fill="white"/>
<path d="M56.5947 13.1825C56.2905 12.405 55.2088 11.974 53.3496 11.881C51.4904 11.7923 48.9595 12.1599 45.7609 12.9796C45.3214 15.4937 44.8735 18.2444 44.4256 21.2275C43.9735 24.2149 43.551 27.2698 43.158 30.3881C42.7735 33.498 42.4524 36.5022 42.1947 39.3966C41.9327 42.2952 41.7721 44.898 41.7045 47.205C41.6369 49.5248 41.7087 51.3797 41.9242 52.7656C42.1017 53.6783 42.3975 54.5614 42.8031 55.4191C43.2172 56.2853 43.7918 56.8938 44.5271 57.2445C45.258 57.591 46.12 57.4854 47.113 56.9234C48.3721 56.1882 49.6735 54.967 51.0172 53.2558C52.3566 51.5403 53.7088 49.6135 55.0736 47.4755C56.4341 45.3374 57.7186 43.2079 58.9271 41.0867C60.144 38.9698 61.2257 37.0642 62.1722 35.374C63.1271 33.6839 63.8877 32.4966 64.4538 31.8078C64.5764 31.6726 64.7919 31.605 65.0961 31.605C65.4003 31.605 65.5524 31.698 65.5524 31.8754C64.8637 32.8219 64.0313 34.1318 63.051 35.7966C62.0792 37.4656 61.0102 39.329 59.8398 41.391C58.6651 43.4445 57.4313 45.5065 56.1383 47.5769C54.8412 49.6473 53.5102 51.5487 52.1496 53.2727C50.7848 55.0051 49.4116 56.3994 48.0257 57.4473C46.8637 58.3008 45.7313 58.6135 44.6285 58.3769C43.5214 58.1403 42.5496 57.5741 41.7045 56.6868C40.8594 55.8079 40.2214 54.8487 39.7947 53.8135C39.0975 52.0304 38.6285 49.8839 38.3918 47.3741C38.1552 44.8727 38.0961 42.1515 38.2059 39.2107C38.3073 36.2614 38.5355 33.2867 38.882 30.2867C39.2285 27.2783 39.6172 24.367 40.0482 21.5487C40.4749 18.7346 40.8848 16.2247 41.282 14.0275C39.7608 14.5937 38.2355 14.9698 36.7017 15.1599C35.1721 15.3543 33.8411 15.1684 32.7129 14.6022C32.1975 14.3909 31.982 14.112 32.0707 13.774C32.151 13.4275 32.3411 13.2078 32.6453 13.1148C32.9496 13.0261 33.1693 13.2416 33.3045 13.7571C33.9045 14.3233 34.9735 14.5092 36.5158 14.3148C38.0496 14.1247 39.6806 13.7022 41.4172 13.0472C41.6285 11.8303 41.8651 10.5374 42.127 9.15991C42.3848 7.77399 42.6341 6.45568 42.8707 5.20497C43.1073 3.94582 43.3313 2.96976 43.5468 2.28102C43.8932 1.15708 44.4256 0.451443 45.1355 0.168344C45.8538 -0.110529 46.4961 -0.0429233 47.0623 0.371161C47.6242 0.776796 47.7933 1.47821 47.5693 2.46694C47.5355 2.63595 47.4172 3.22328 47.2144 4.22469C47.02 5.21765 46.8087 6.40498 46.5721 7.79089C46.3355 9.17681 46.1073 10.5881 45.8961 12.0163C47.358 11.6233 48.8792 11.3317 50.4595 11.1374C52.0355 10.9346 53.4595 10.9134 54.7355 11.0698C56.02 11.2177 56.8989 11.6191 57.3721 12.2698C57.7651 12.743 57.7862 13.1233 57.4398 13.4022C57.089 13.6853 56.8059 13.6134 56.5947 13.1825Z" fill="white"/>
</svg>
